<svg width="49" height="49" viewBox="0 0 49 49" fill="none" xmlns="http://www.w3.org/2000/svg">
<g clip-path="url(#clip0_19_881)">
<path d="M24.5 0C26.1908 0 27.8177 0.215332 29.3809 0.645996C30.944 1.07666 32.4035 1.69873 33.7593 2.51221C35.1151 3.32568 36.3592 4.28271 37.4917 5.3833C38.6242 6.48389 39.5812 7.72005 40.3628 9.0918C41.1444 10.4635 41.7585 11.931 42.2051 13.4941C42.6517 15.0573 42.875 16.6842 42.875 18.375V29.0938C42.875 29.7318 42.7554 30.3299 42.5161 30.8882C42.2769 31.4465 41.9499 31.9329 41.5352 32.3477C41.1204 32.7624 40.634 33.0894 40.0757 33.3286C39.5174 33.5679 38.9193 33.6875 38.2812 33.6875H33.6875V18.375H38.2812C38.5524 18.375 38.8156 18.3989 39.0708 18.4468C39.326 18.4946 39.5732 18.5664 39.8125 18.6621C39.8125 16.5088 39.4217 14.491 38.6401 12.6089C37.8586 10.7267 36.7899 9.07585 35.4341 7.65625C34.0783 6.23665 32.4593 5.12012 30.5771 4.30664C28.695 3.49316 26.6693 3.07845 24.5 3.0625C23.0964 3.0625 21.7406 3.24593 20.4326 3.61279C19.1247 3.97966 17.9045 4.49007 16.772 5.14404C15.6395 5.79801 14.6107 6.59554 13.6855 7.53662C12.7604 8.4777 11.9629 9.51449 11.293 10.647C10.623 11.7795 10.1047 12.9997 9.73779 14.3076C9.37093 15.6156 9.1875 16.9714 9.1875 18.375V18.6621C9.42676 18.5824 9.67399 18.5186 9.9292 18.4707C10.1844 18.4229 10.4476 18.391 10.7188 18.375H15.3125V33.6875H12.25V36.75C12.25 37.5954 12.4095 38.3849 12.7285 39.1187C13.0475 39.8524 13.4862 40.5063 14.0444 41.0806C14.6027 41.6548 15.2487 42.0934 15.9824 42.3965C16.7161 42.6995 17.5137 42.8591 18.375 42.875C18.375 42.4443 18.4548 42.0456 18.6143 41.6787C18.7738 41.3118 18.9891 40.9928 19.2603 40.7217C19.5314 40.4505 19.8584 40.2272 20.2412 40.0518C20.624 39.8763 21.0228 39.7966 21.4375 39.8125H27.5625C27.9932 39.8125 28.3919 39.8923 28.7588 40.0518C29.1257 40.2113 29.4447 40.4266 29.7158 40.6978C29.987 40.9689 30.2103 41.2959 30.3857 41.6787C30.5612 42.0615 30.641 42.4603 30.625 42.875V45.9375C30.625 46.3682 30.5452 46.7669 30.3857 47.1338C30.2262 47.5007 30.0109 47.8197 29.7397 48.0908C29.4686 48.362 29.1416 48.5853 28.7588 48.7607C28.376 48.9362 27.9772 49.0159 27.5625 49H21.4375C21.0068 49 20.6081 48.9202 20.2412 48.7607C19.8743 48.6012 19.5553 48.3859 19.2842 48.1147C19.013 47.8436 18.7897 47.5166 18.6143 47.1338C18.4388 46.751 18.359 46.3522 18.375 45.9375C17.099 45.9375 15.9106 45.6982 14.8101 45.2197C13.7095 44.7412 12.7365 44.0872 11.8911 43.2578C11.0457 42.4284 10.3838 41.4554 9.90527 40.3389C9.42676 39.2223 9.1875 38.026 9.1875 36.75V33.4004C8.72493 33.2409 8.31022 33.0176 7.94336 32.7305C7.5765 32.4434 7.25749 32.1164 6.98633 31.7495C6.71517 31.3827 6.50781 30.9679 6.36426 30.5054C6.2207 30.0428 6.14095 29.5723 6.125 29.0938V18.375C6.125 16.6842 6.34033 15.0573 6.771 13.4941C7.20166 11.931 7.82373 10.4715 8.63721 9.11572C9.45068 7.75993 10.4077 6.51579 11.5083 5.3833C12.6089 4.25081 13.8451 3.29378 15.2168 2.51221C16.5885 1.73063 18.056 1.11654 19.6191 0.669922C21.1823 0.223307 22.8092 0 24.5 0ZM21.4375 45.9375H27.5625V42.875H21.4375V45.9375ZM10.7188 21.4375C10.304 21.4375 9.94515 21.589 9.64209 21.8921C9.33903 22.1952 9.1875 22.554 9.1875 22.9688V29.0938C9.1875 29.5085 9.33903 29.8673 9.64209 30.1704C9.94515 30.4735 10.304 30.625 10.7188 30.625H12.25V21.4375H10.7188ZM39.8125 22.9688C39.8125 22.554 39.661 22.1952 39.3579 21.8921C39.0549 21.589 38.696 21.4375 38.2812 21.4375H36.75V30.625H38.2812C38.696 30.625 39.0549 30.4735 39.3579 30.1704C39.661 29.8673 39.8125 29.5085 39.8125 29.0938V22.9688Z" fill="black"/>
</g>
<defs>
<clipPath id="clip0_19_881">
<rect width="49" height="49" fill="white"/>
</clipPath>
</defs>
</svg>
